<?xml version="1.0" encoding="UTF-8"?>
<svg width="752pt" height="752pt" version="1.1" viewBox="0 0 752 752" xmlns="http://www.w3.org/2000/svg">
 <path d="m470.72 229.19h-189.43c-13.816 0-27.066 5.4883-36.836 15.258s-15.258 23.02-15.258 36.836v189.43c0 13.816 5.4883 27.066 15.258 36.836 9.7695 9.7695 23.02 15.258 36.836 15.258h189.43c13.816 0 27.066-5.4883 36.836-15.258 9.7695-9.7695 15.258-23.02 15.258-36.836v-189.43c0-13.816-5.4883-27.066-15.258-36.836-9.7695-9.7695-23.02-15.258-36.836-15.258zm-189.43 28.414h189.43c6.2773 0 12.301 2.4961 16.742 6.9375 4.4414 4.4375 6.9375 10.461 6.9375 16.742v80.508h-58.535c-4.3672-18.023-16.625-33.125-33.367-41.098-16.746-7.9727-36.195-7.9727-52.941 0-16.746 7.9727-29.004 23.074-33.367 41.098h-58.582v-80.508c0-6.2812 2.4961-12.305 6.9375-16.742 4.4375-4.4414 10.461-6.9375 16.742-6.9375zm127.87 118.39c0 8.793-3.4922 17.227-9.7109 23.441-6.2148 6.2188-14.648 9.7109-23.441 9.7109-8.7891 0-17.223-3.4922-23.441-9.7109-6.2148-6.2148-9.707-14.648-9.707-23.441 0-8.7891 3.4922-17.223 9.707-23.441 6.2188-6.2148 14.652-9.707 23.441-9.707 8.793 0 17.227 3.4922 23.441 9.707 6.2188 6.2188 9.7109 14.652 9.7109 23.441zm61.566 118.4h-189.43c-6.2812 0-12.305-2.4961-16.742-6.9375-4.4414-4.4414-6.9375-10.465-6.9375-16.742v-80.512h58.535c4.3633 18.027 16.621 33.125 33.367 41.102 16.746 7.9727 36.195 7.9727 52.938 0 16.746-7.9766 29.004-23.074 33.371-41.102h58.582v80.512c0 6.2773-2.4961 12.301-6.9375 16.742-4.4414 4.4414-10.465 6.9375-16.742 6.9375z"/>
</svg>
